<svg width="16" height="16" viewBox="0 0 16 16" fill="none" xmlns="http://www.w3.org/2000/svg">
<g id="fi-rr-caret-up">
<path id="Vector" d="M4.76158 10.3323H11.607C11.7281 10.3318 11.8463 10.2954 11.9467 10.2277C12.0472 10.16 12.1252 10.064 12.1711 9.95196C12.217 9.83989 12.2286 9.71674 12.2045 9.59807C12.1804 9.4794 12.1216 9.37054 12.0356 9.28527L8.61903 5.86868C8.56211 5.81129 8.49439 5.76574 8.41977 5.73465C8.34516 5.70357 8.26513 5.68756 8.1843 5.68756C8.10347 5.68756 8.02344 5.70357 7.94883 5.73465C7.87421 5.76574 7.80649 5.81129 7.74957 5.86868L4.33298 9.28527C4.247 9.37054 4.18823 9.4794 4.16412 9.59807C4.14 9.71674 4.15162 9.83989 4.1975 9.95196C4.24337 10.064 4.32145 10.16 4.42186 10.2277C4.52226 10.2954 4.64049 10.3318 4.76158 10.3323Z" fill="#1A9882"/>
</g>
</svg>
