<svg width="17" height="18" viewBox="0 0 17 18" fill="none" xmlns="http://www.w3.org/2000/svg">
<g clip-path="url(#clip0_5453_4500)">
<path d="M9.90951 5.35629V0.851347C10.5467 1.09198 11.1255 1.46531 11.6075 1.94659L14.0074 4.34785C14.4892 4.82926 14.8628 5.40788 15.1033 6.04512H10.5983C10.4157 6.04512 10.2404 5.97255 10.1113 5.84337C9.98209 5.71419 9.90951 5.53898 9.90951 5.35629ZM15.4202 7.75687V13.6223C15.4191 14.5354 15.0558 15.4108 14.4102 16.0564C13.7645 16.7021 12.8891 17.0653 11.976 17.0664H5.0877C4.17459 17.0653 3.2992 16.7021 2.65353 16.0564C2.00786 15.4108 1.64465 14.5354 1.64355 13.6223V3.97863C1.64465 3.06552 2.00786 2.19013 2.65353 1.54446C3.2992 0.898795 4.17459 0.535579 5.0877 0.534485L8.19777 0.534485C8.31005 0.534485 8.42095 0.54344 8.53185 0.551017V5.35629C8.53185 5.90436 8.74957 6.42998 9.13711 6.81752C9.52465 7.20506 10.0503 7.42278 10.5983 7.42278H15.4036C15.4112 7.53368 15.4202 7.64459 15.4202 7.75687ZM11.7859 10.3923C11.66 10.2602 11.4867 10.1834 11.3042 10.1789C11.1217 10.1743 10.9449 10.2424 10.8126 10.3682L8.33278 12.7316C8.26652 12.7982 8.18732 12.8506 8.10005 12.8855C8.01279 12.9204 7.91931 12.9371 7.82536 12.9345C7.73141 12.9319 7.63898 12.9102 7.55377 12.8705C7.46855 12.8309 7.39235 12.7742 7.32984 12.704L6.23529 11.73C6.16772 11.6698 6.08894 11.6234 6.00346 11.5936C5.91798 11.5638 5.82746 11.5512 5.73708 11.5564C5.55455 11.5668 5.38365 11.6494 5.26198 11.7858C5.20173 11.8534 5.15539 11.9322 5.12559 12.0177C5.09579 12.1031 5.08311 12.1937 5.08829 12.284C5.09876 12.4666 5.1813 12.6375 5.31777 12.7591L6.38133 13.7056C6.76685 14.0912 7.28915 14.3088 7.83441 14.311C8.37968 14.3132 8.90371 14.0998 9.29232 13.7173L11.7618 11.3656C11.8939 11.2397 11.9707 11.0665 11.9753 10.884C11.9798 10.7015 11.9117 10.5246 11.7859 10.3923V10.3923Z" fill="#F46702"/>
</g>
<defs>
<clipPath id="clip0_5453_4500">
<rect width="16.5319" height="16.5319" fill="white" transform="translate(0.265991 0.534485)"/>
</clipPath>
</defs>
</svg>
