<svg width="17" height="17" viewBox="0 0 17 17" fill="none" xmlns="http://www.w3.org/2000/svg">
<path d="M8.53191 9.86588H11.1986V7.19922H8.53191V5.19922L5.19858 8.53255L8.53191 11.8659V9.86588ZM13.1986 2.53255H10.4119C10.1319 1.75922 9.39858 1.19922 8.53191 1.19922C7.66525 1.19922 6.93191 1.75922 6.65191 2.53255H3.86525C3.77191 2.53255 3.68525 2.53922 3.59858 2.55922C3.38626 2.60377 3.18794 2.69925 3.02071 2.83745C2.85347 2.97565 2.72234 3.15242 2.63858 3.35255C2.57191 3.50589 2.53191 3.67922 2.53191 3.86589V13.1992C2.53191 13.3792 2.57191 13.5592 2.63858 13.7192C2.70525 13.8792 2.80525 14.0192 2.92525 14.1459C3.10525 14.3259 3.33858 14.4592 3.59858 14.5126C3.68525 14.5259 3.77191 14.5326 3.86525 14.5326H13.1986C13.9319 14.5326 14.5319 13.9326 14.5319 13.1992V3.86589C14.5319 3.13255 13.9319 2.53255 13.1986 2.53255ZM8.53191 2.36589C8.80525 2.36589 9.03191 2.59255 9.03191 2.86589C9.03191 3.13922 8.80525 3.36589 8.53191 3.36589C8.25858 3.36589 8.03191 3.13922 8.03191 2.86589C8.03191 2.59255 8.25858 2.36589 8.53191 2.36589ZM13.1986 13.1992H3.86525V3.86589H13.1986V13.1992Z" fill="#F46702"/>
</svg>
